<svg width="455" height="773" viewBox="0 0 455 773" fill="none" xmlns="http://www.w3.org/2000/svg">
<g opacity="0.8">
<path opacity="0.7" fill-rule="evenodd" clip-rule="evenodd" d="M414.177 733.85L414.183 733.837L414.189 733.825C416.812 728.523 418.276 720.064 418.276 708.099C418.276 695.988 416.808 687.549 414.201 682.396L414.189 682.372L414.177 682.347C412.073 677.99 407.538 675.352 399.116 675.352C390.874 675.352 386.284 677.964 384.043 682.372C381.553 687.546 380.155 695.999 380.155 708.099C380.155 720.045 381.547 728.513 384.048 733.836C386.292 738.237 390.88 740.845 399.116 740.845C407.538 740.845 412.073 738.208 414.177 733.85ZM381.353 681.073C384.28 675.286 390.201 672.393 399.116 672.393C408.164 672.393 414.085 675.286 416.879 681.073C419.806 686.859 421.27 695.868 421.27 708.099C421.27 720.198 419.806 729.206 416.879 735.124C414.085 740.911 408.164 743.804 399.116 743.804C390.201 743.804 384.28 740.911 381.353 735.124C378.558 729.206 377.161 720.198 377.161 708.099C377.161 695.868 378.558 686.859 381.353 681.073ZM455 708.099C455 723.274 453.255 735.703 449.619 745.242C445.936 754.901 439.899 762.079 431.463 766.535C423.154 770.925 412.298 773 399.116 773C386.06 773 375.274 770.923 366.968 766.535C358.532 762.079 352.495 754.901 348.813 745.242C345.176 735.704 343.431 723.274 343.431 708.099C343.431 692.795 345.175 680.299 348.813 670.758C352.495 661.099 358.532 653.921 366.968 649.465C375.274 645.077 386.06 643 399.116 643C412.298 643 423.154 645.075 431.463 649.465C439.899 653.921 445.936 661.099 449.619 670.758C453.256 680.299 455 692.795 455 708.099ZM446.817 744.199C450.277 735.124 452.006 723.091 452.006 708.099C452.006 692.975 450.277 680.876 446.817 671.801C443.358 662.727 437.769 656.151 430.052 652.074C422.334 647.997 412.022 645.959 399.116 645.959C386.342 645.959 376.097 647.997 368.379 652.074C360.662 656.151 355.074 662.727 351.614 671.801C348.155 680.876 346.425 692.975 346.425 708.099C346.425 723.091 348.155 735.124 351.614 744.199C355.074 753.273 360.662 759.849 368.379 763.926C376.097 768.003 386.342 770.041 399.116 770.041C412.022 770.041 422.334 768.003 430.052 763.926C437.769 759.849 443.358 753.273 446.817 744.199Z" fill="url(#paint0_linear_661_8747)"/>
<path opacity="0.7" fill-rule="evenodd" clip-rule="evenodd" d="M179.232 733.837L179.238 733.825C181.861 728.523 183.325 720.064 183.325 708.099C183.325 695.988 181.857 687.549 179.25 682.396L179.238 682.372L179.226 682.347C177.122 677.99 172.587 675.352 164.165 675.352C155.922 675.352 151.333 677.964 149.091 682.373C146.602 687.546 145.204 695.999 145.204 708.099C145.204 720.045 146.596 728.514 149.097 733.836C151.341 738.238 155.929 740.845 164.165 740.845C172.587 740.845 177.122 738.208 179.226 733.85L179.232 733.837ZM220.049 708.099C220.049 723.274 218.304 735.703 214.667 745.242C210.985 754.901 204.948 762.079 196.512 766.535C188.203 770.925 177.347 773 164.165 773C151.109 773 140.323 770.923 132.017 766.535C123.581 762.079 117.544 754.901 113.862 745.242C110.225 735.704 108.48 723.274 108.48 708.099C108.48 692.795 110.224 680.299 113.862 670.758C117.544 661.099 123.581 653.921 132.017 649.465C140.323 645.077 151.109 643 164.165 643C177.347 643 188.203 645.075 196.512 649.465C204.948 653.921 210.985 661.099 214.667 670.758C218.305 680.299 220.049 692.795 220.049 708.099ZM211.866 744.199C215.325 735.124 217.055 723.091 217.055 708.099C217.055 692.975 215.325 680.876 211.866 671.801C208.406 662.727 202.818 656.151 195.101 652.074C187.383 647.997 177.071 645.959 164.165 645.959C151.391 645.959 141.146 647.997 133.428 652.074C125.711 656.151 120.123 662.727 116.663 671.801C113.204 680.876 111.474 692.975 111.474 708.099C111.474 723.091 113.204 735.124 116.663 744.199C120.123 753.273 125.711 759.849 133.428 763.926C141.146 768.003 151.391 770.041 164.165 770.041C177.071 770.041 187.383 768.003 195.101 763.926C202.818 759.849 208.406 753.273 211.866 744.199ZM181.928 735.124C179.134 740.911 173.213 743.804 164.165 743.804C155.25 743.804 149.329 740.911 146.401 735.124C143.607 729.206 142.21 720.198 142.21 708.099C142.21 695.868 143.607 686.859 146.401 681.073C149.329 675.286 155.25 672.393 164.165 672.393C173.213 672.393 179.134 675.286 181.928 681.073C184.855 686.859 186.319 695.868 186.319 708.099C186.319 720.198 184.855 729.206 181.928 735.124Z" fill="url(#paint1_linear_661_8747)"/>
<path opacity="0.7" fill-rule="evenodd" clip-rule="evenodd" d="M0.392974 684.821V654.385L1.79356 653.515C6.80938 650.398 13.2588 647.932 21.0347 646.044C28.8828 644.139 37.3752 643.197 46.4975 643.197C61.0907 643.197 73.1005 646.023 82.2613 651.962C92.0044 658.19 96.5938 668.633 96.5938 682.454C96.5938 693.295 94.0221 702.341 88.5897 709.309C83.3059 716.126 74.1863 721.765 61.7366 726.447C49.9067 730.914 42.0357 734.618 37.8455 737.542L37.8382 737.547L37.8308 737.552C35.8329 738.928 34.5329 740.162 33.7201 741.24H97.5917V772.211H-3V747.158C-3 740.132 -1.81638 733.956 0.679635 728.732L0.693997 728.702L0.709038 728.672C3.38496 723.382 7.83764 718.694 13.8486 714.549C19.8114 710.437 27.941 706.267 38.1506 702.018C45.6391 698.901 51.351 695.969 55.3723 693.237C59.1683 690.62 60.5632 687.86 60.47 684.913L60.4698 684.906L60.4696 684.899C60.3582 680.716 58.8363 678.338 56.2606 676.974L56.2037 676.944L56.1481 676.911C53.2149 675.193 48.7105 674.168 42.3062 674.168C36.2784 674.168 30.0839 675.223 23.7104 677.364L23.6848 677.373L23.6591 677.381C17.1548 679.438 11.4857 681.8 6.63111 684.452L5.95525 684.821H0.392974ZM57.0756 695.671C52.8178 698.564 46.8967 701.589 39.3124 704.745C29.2 708.953 21.2831 713.03 15.5616 716.976C9.84008 720.921 5.78181 725.261 3.38678 729.995C1.12479 734.73 -0.00619936 740.451 -0.00619936 747.158V769.252H94.5979V744.199H29.5326C29.5326 743.212 29.7661 742.226 30.233 741.24C31.1979 739.201 33.1599 737.163 36.119 735.124C40.643 731.968 48.826 728.154 60.6682 723.683C72.9095 719.08 81.4252 713.688 86.2153 707.507C91.1384 701.194 93.6 692.843 93.6 682.454C93.6 669.302 89.2756 659.965 80.6268 654.442C72.1111 648.918 60.7347 646.156 46.4975 646.156C37.5826 646.156 29.333 647.077 21.7488 648.918C14.1645 650.759 8.0438 653.126 3.38678 656.02V681.862H5.18306C5.57737 681.647 5.97655 681.433 6.38058 681.222C11.1573 678.723 16.6126 676.503 22.7467 674.563C29.3996 672.327 35.9194 671.209 42.3062 671.209C48.9591 671.209 54.0818 672.262 57.6744 674.366C61.4 676.338 63.3293 679.823 63.4624 684.821C63.5954 689.029 61.4665 692.646 57.0756 695.671Z" fill="url(#paint2_linear_661_8747)"/>
<path opacity="0.7" fill-rule="evenodd" clip-rule="evenodd" d="M234.393 684.624V654.187L235.794 653.317C240.809 650.201 247.259 647.735 255.035 645.847C262.883 643.942 271.375 643 280.498 643C295.091 643 307.1 645.826 316.261 651.765C326.004 657.993 330.594 668.436 330.594 682.256C330.594 693.098 328.022 702.144 322.59 709.112C317.306 715.928 308.186 721.568 295.737 726.25C283.907 730.717 276.036 734.421 271.845 737.345L271.838 737.35L271.831 737.355C269.833 738.731 268.533 739.964 267.72 741.042H331.592V772.014H231V746.961C231 739.935 232.184 733.759 234.68 728.535L234.694 728.505L234.709 728.475C237.385 723.185 241.838 718.497 247.849 714.352C253.811 710.24 261.941 706.069 272.151 701.821C279.639 698.704 285.351 695.771 289.372 693.04C293.168 690.422 294.563 687.662 294.47 684.716L294.47 684.709L294.47 684.702C294.358 680.519 292.836 678.141 290.261 676.777L290.204 676.747L290.148 676.714C287.215 674.996 282.711 673.971 276.306 673.971C270.278 673.971 264.084 675.025 257.71 677.167L257.685 677.176L257.659 677.184C251.155 679.241 245.486 681.603 240.631 684.255L239.955 684.624H234.393ZM291.076 695.473C286.818 698.367 280.897 701.391 273.312 704.548C263.2 708.756 255.283 712.833 249.562 716.778C243.84 720.724 239.782 725.064 237.387 729.798C235.125 734.533 233.994 740.253 233.994 746.961V769.055H328.598V744.002H263.533C263.533 743.015 263.766 742.029 264.233 741.042C265.198 739.004 267.16 736.966 270.119 734.927C274.643 731.771 282.826 727.957 294.668 723.486C306.909 718.883 315.425 713.491 320.215 707.31C325.138 700.997 327.6 692.646 327.6 682.256C327.6 669.105 323.276 659.768 314.627 654.244C306.111 648.721 294.735 645.959 280.498 645.959C271.583 645.959 263.333 646.88 255.749 648.721C248.164 650.562 242.044 652.929 237.387 655.822V681.665H239.183C239.577 681.449 239.977 681.236 240.381 681.024C245.157 678.525 250.613 676.306 256.747 674.366C263.4 672.13 269.919 671.012 276.306 671.012C282.959 671.012 288.082 672.064 291.674 674.168C295.4 676.141 297.329 679.626 297.462 684.624C297.595 688.832 295.467 692.449 291.076 695.473Z" fill="url(#paint3_linear_661_8747)"/>
</g>
<g opacity="0.6">
<path opacity="0.7" fill-rule="evenodd" clip-rule="evenodd" d="M414.177 583.85L414.183 583.837L414.189 583.825C416.812 578.523 418.276 570.064 418.276 558.099C418.276 545.988 416.808 537.549 414.201 532.396L414.189 532.372L414.177 532.347C412.073 527.99 407.538 525.352 399.116 525.352C390.874 525.352 386.284 527.964 384.043 532.372C381.553 537.546 380.155 545.999 380.155 558.099C380.155 570.045 381.547 578.513 384.048 583.836C386.292 588.237 390.88 590.845 399.116 590.845C407.538 590.845 412.073 588.208 414.177 583.85ZM381.353 531.073C384.28 525.286 390.201 522.393 399.116 522.393C408.164 522.393 414.085 525.286 416.879 531.073C419.806 536.859 421.27 545.868 421.27 558.099C421.27 570.198 419.806 579.206 416.879 585.124C414.085 590.911 408.164 593.804 399.116 593.804C390.201 593.804 384.28 590.911 381.353 585.124C378.558 579.206 377.161 570.198 377.161 558.099C377.161 545.868 378.558 536.859 381.353 531.073ZM455 558.099C455 573.274 453.255 585.703 449.619 595.242C445.936 604.901 439.899 612.079 431.463 616.535C423.154 620.925 412.298 623 399.116 623C386.06 623 375.274 620.923 366.968 616.535C358.532 612.079 352.495 604.901 348.813 595.242C345.176 585.704 343.431 573.274 343.431 558.099C343.431 542.795 345.175 530.299 348.813 520.758C352.495 511.099 358.532 503.921 366.968 499.465C375.274 495.077 386.06 493 399.116 493C412.298 493 423.154 495.075 431.463 499.465C439.899 503.921 445.936 511.099 449.619 520.758C453.256 530.299 455 542.795 455 558.099ZM446.817 594.199C450.277 585.124 452.006 573.091 452.006 558.099C452.006 542.975 450.277 530.876 446.817 521.801C443.358 512.727 437.769 506.151 430.052 502.074C422.334 497.997 412.022 495.959 399.116 495.959C386.342 495.959 376.097 497.997 368.379 502.074C360.662 506.151 355.074 512.727 351.614 521.801C348.155 530.876 346.425 542.975 346.425 558.099C346.425 573.091 348.155 585.124 351.614 594.199C355.074 603.273 360.662 609.849 368.379 613.926C376.097 618.003 386.342 620.041 399.116 620.041C412.022 620.041 422.334 618.003 430.052 613.926C437.769 609.849 443.358 603.273 446.817 594.199Z" fill="url(#paint4_linear_661_8747)"/>
<path opacity="0.7" fill-rule="evenodd" clip-rule="evenodd" d="M179.232 583.837L179.238 583.825C181.861 578.523 183.325 570.064 183.325 558.099C183.325 545.988 181.857 537.549 179.25 532.396L179.238 532.372L179.226 532.347C177.122 527.99 172.587 525.352 164.165 525.352C155.922 525.352 151.333 527.964 149.091 532.373C146.602 537.546 145.204 545.999 145.204 558.099C145.204 570.045 146.596 578.514 149.097 583.836C151.341 588.238 155.929 590.845 164.165 590.845C172.587 590.845 177.122 588.208 179.226 583.85L179.232 583.837ZM220.049 558.099C220.049 573.274 218.304 585.703 214.667 595.242C210.985 604.901 204.948 612.079 196.512 616.535C188.203 620.925 177.347 623 164.165 623C151.109 623 140.323 620.923 132.017 616.535C123.581 612.079 117.544 604.901 113.862 595.242C110.225 585.704 108.48 573.274 108.48 558.099C108.48 542.795 110.224 530.299 113.862 520.758C117.544 511.099 123.581 503.921 132.017 499.465C140.323 495.077 151.109 493 164.165 493C177.347 493 188.203 495.075 196.512 499.465C204.948 503.921 210.985 511.099 214.667 520.758C218.305 530.299 220.049 542.795 220.049 558.099ZM211.866 594.199C215.325 585.124 217.055 573.091 217.055 558.099C217.055 542.975 215.325 530.876 211.866 521.801C208.406 512.727 202.818 506.151 195.101 502.074C187.383 497.997 177.071 495.959 164.165 495.959C151.391 495.959 141.146 497.997 133.428 502.074C125.711 506.151 120.123 512.727 116.663 521.801C113.204 530.876 111.474 542.975 111.474 558.099C111.474 573.091 113.204 585.124 116.663 594.199C120.123 603.273 125.711 609.849 133.428 613.926C141.146 618.003 151.391 620.041 164.165 620.041C177.071 620.041 187.383 618.003 195.101 613.926C202.818 609.849 208.406 603.273 211.866 594.199ZM181.928 585.124C179.134 590.911 173.213 593.804 164.165 593.804C155.25 593.804 149.329 590.911 146.401 585.124C143.607 579.206 142.21 570.198 142.21 558.099C142.21 545.868 143.607 536.859 146.401 531.073C149.329 525.286 155.25 522.393 164.165 522.393C173.213 522.393 179.134 525.286 181.928 531.073C184.855 536.859 186.319 545.868 186.319 558.099C186.319 570.198 184.855 579.206 181.928 585.124Z" fill="url(#paint5_linear_661_8747)"/>
<path opacity="0.7" fill-rule="evenodd" clip-rule="evenodd" d="M0.392974 534.821V504.385L1.79356 503.515C6.80938 500.398 13.2588 497.932 21.0347 496.044C28.8828 494.139 37.3752 493.197 46.4975 493.197C61.0907 493.197 73.1005 496.023 82.2613 501.962C92.0044 508.19 96.5938 518.633 96.5938 532.454C96.5938 543.295 94.0221 552.341 88.5897 559.309C83.3059 566.126 74.1863 571.765 61.7366 576.447C49.9067 580.914 42.0357 584.618 37.8455 587.542L37.8382 587.547L37.8308 587.552C35.8329 588.928 34.5329 590.162 33.7201 591.24H97.5917V622.211H-3V597.158C-3 590.132 -1.81638 583.956 0.679635 578.732L0.693997 578.702L0.709038 578.672C3.38496 573.382 7.83764 568.694 13.8486 564.549C19.8114 560.437 27.941 556.267 38.1506 552.018C45.6391 548.901 51.351 545.969 55.3723 543.237C59.1683 540.62 60.5632 537.86 60.47 534.913L60.4698 534.906L60.4696 534.899C60.3582 530.716 58.8363 528.338 56.2606 526.974L56.2037 526.944L56.1481 526.911C53.2149 525.193 48.7105 524.168 42.3062 524.168C36.2784 524.168 30.0839 525.223 23.7104 527.364L23.6848 527.373L23.6591 527.381C17.1548 529.438 11.4857 531.8 6.63111 534.452L5.95525 534.821H0.392974ZM57.0756 545.671C52.8178 548.564 46.8967 551.589 39.3124 554.745C29.2 558.953 21.2831 563.03 15.5616 566.976C9.84008 570.921 5.78181 575.261 3.38678 579.995C1.12479 584.73 -0.00619936 590.451 -0.00619936 597.158V619.252H94.5979V594.199H29.5326C29.5326 593.212 29.7661 592.226 30.233 591.24C31.1979 589.201 33.1599 587.163 36.119 585.124C40.643 581.968 48.826 578.154 60.6682 573.683C72.9095 569.08 81.4252 563.688 86.2153 557.507C91.1384 551.194 93.6 542.843 93.6 532.454C93.6 519.302 89.2756 509.965 80.6268 504.442C72.1111 498.918 60.7347 496.156 46.4975 496.156C37.5826 496.156 29.333 497.077 21.7488 498.918C14.1645 500.759 8.0438 503.126 3.38678 506.02V531.862H5.18306C5.57737 531.647 5.97655 531.433 6.38058 531.222C11.1573 528.723 16.6126 526.503 22.7467 524.563C29.3996 522.327 35.9194 521.209 42.3062 521.209C48.9591 521.209 54.0818 522.262 57.6744 524.366C61.4 526.338 63.3293 529.823 63.4624 534.821C63.5954 539.029 61.4665 542.646 57.0756 545.671Z" fill="url(#paint6_linear_661_8747)"/>
<path opacity="0.7" fill-rule="evenodd" clip-rule="evenodd" d="M234.393 534.624V504.187L235.794 503.317C240.809 500.201 247.259 497.735 255.035 495.847C262.883 493.942 271.375 493 280.498 493C295.091 493 307.1 495.826 316.261 501.765C326.004 507.993 330.594 518.436 330.594 532.256C330.594 543.098 328.022 552.144 322.59 559.112C317.306 565.928 308.186 571.568 295.737 576.25C283.907 580.717 276.036 584.421 271.845 587.345L271.838 587.35L271.831 587.355C269.833 588.731 268.533 589.964 267.72 591.042H331.592V622.014H231V596.961C231 589.935 232.184 583.759 234.68 578.535L234.694 578.505L234.709 578.475C237.385 573.185 241.838 568.497 247.849 564.352C253.811 560.24 261.941 556.069 272.151 551.821C279.639 548.704 285.351 545.771 289.372 543.04C293.168 540.422 294.563 537.662 294.47 534.716L294.47 534.709L294.47 534.702C294.358 530.519 292.836 528.141 290.261 526.777L290.204 526.747L290.148 526.714C287.215 524.996 282.711 523.971 276.306 523.971C270.278 523.971 264.084 525.025 257.71 527.167L257.685 527.176L257.659 527.184C251.155 529.241 245.486 531.603 240.631 534.255L239.955 534.624H234.393ZM291.076 545.473C286.818 548.367 280.897 551.391 273.312 554.548C263.2 558.756 255.283 562.833 249.562 566.778C243.84 570.724 239.782 575.064 237.387 579.798C235.125 584.533 233.994 590.253 233.994 596.961V619.055H328.598V594.002H263.533C263.533 593.015 263.766 592.029 264.233 591.042C265.198 589.004 267.16 586.966 270.119 584.927C274.643 581.771 282.826 577.957 294.668 573.486C306.909 568.883 315.425 563.491 320.215 557.31C325.138 550.997 327.6 542.646 327.6 532.256C327.6 519.105 323.276 509.768 314.627 504.244C306.111 498.721 294.735 495.959 280.498 495.959C271.583 495.959 263.333 496.88 255.749 498.721C248.164 500.562 242.044 502.929 237.387 505.822V531.665H239.183C239.577 531.449 239.977 531.236 240.381 531.024C245.157 528.525 250.613 526.306 256.747 524.366C263.4 522.13 269.919 521.012 276.306 521.012C282.959 521.012 288.082 522.064 291.674 524.168C295.4 526.141 297.329 529.626 297.462 534.624C297.595 538.832 295.467 542.449 291.076 545.473Z" fill="url(#paint7_linear_661_8747)"/>
</g>
<g opacity="0.5">
<path opacity="0.7" fill-rule="evenodd" clip-rule="evenodd" d="M414.177 433.85L414.183 433.837L414.189 433.825C416.812 428.523 418.276 420.064 418.276 408.099C418.276 395.988 416.808 387.549 414.201 382.396L414.189 382.372L414.177 382.347C412.073 377.99 407.538 375.352 399.116 375.352C390.874 375.352 386.284 377.964 384.043 382.372C381.553 387.546 380.155 395.999 380.155 408.099C380.155 420.045 381.547 428.513 384.048 433.836C386.292 438.237 390.88 440.845 399.116 440.845C407.538 440.845 412.073 438.208 414.177 433.85ZM381.353 381.073C384.28 375.286 390.201 372.393 399.116 372.393C408.164 372.393 414.085 375.286 416.879 381.073C419.806 386.859 421.27 395.868 421.27 408.099C421.27 420.198 419.806 429.206 416.879 435.124C414.085 440.911 408.164 443.804 399.116 443.804C390.201 443.804 384.28 440.911 381.353 435.124C378.558 429.206 377.161 420.198 377.161 408.099C377.161 395.868 378.558 386.859 381.353 381.073ZM455 408.099C455 423.274 453.255 435.703 449.619 445.242C445.936 454.901 439.899 462.079 431.463 466.535C423.154 470.925 412.298 473 399.116 473C386.06 473 375.274 470.923 366.968 466.535C358.532 462.079 352.495 454.901 348.813 445.242C345.176 435.704 343.431 423.274 343.431 408.099C343.431 392.795 345.175 380.299 348.813 370.758C352.495 361.099 358.532 353.921 366.968 349.465C375.274 345.077 386.06 343 399.116 343C412.298 343 423.154 345.075 431.463 349.465C439.899 353.921 445.936 361.099 449.619 370.758C453.256 380.299 455 392.795 455 408.099ZM446.817 444.199C450.277 435.124 452.006 423.091 452.006 408.099C452.006 392.975 450.277 380.876 446.817 371.801C443.358 362.727 437.769 356.151 430.052 352.074C422.334 347.997 412.022 345.959 399.116 345.959C386.342 345.959 376.097 347.997 368.379 352.074C360.662 356.151 355.074 362.727 351.614 371.801C348.155 380.876 346.425 392.975 346.425 408.099C346.425 423.091 348.155 435.124 351.614 444.199C355.074 453.273 360.662 459.849 368.379 463.926C376.097 468.003 386.342 470.041 399.116 470.041C412.022 470.041 422.334 468.003 430.052 463.926C437.769 459.849 443.358 453.273 446.817 444.199Z" fill="url(#paint8_linear_661_8747)"/>
<path opacity="0.7" fill-rule="evenodd" clip-rule="evenodd" d="M179.232 433.837L179.238 433.825C181.861 428.523 183.325 420.064 183.325 408.099C183.325 395.988 181.857 387.549 179.25 382.396L179.238 382.372L179.226 382.347C177.122 377.99 172.587 375.352 164.165 375.352C155.922 375.352 151.333 377.964 149.091 382.373C146.602 387.546 145.204 395.999 145.204 408.099C145.204 420.045 146.596 428.514 149.097 433.836C151.341 438.238 155.929 440.845 164.165 440.845C172.587 440.845 177.122 438.208 179.226 433.85L179.232 433.837ZM220.049 408.099C220.049 423.274 218.304 435.703 214.667 445.242C210.985 454.901 204.948 462.079 196.512 466.535C188.203 470.925 177.347 473 164.165 473C151.109 473 140.323 470.923 132.017 466.535C123.581 462.079 117.544 454.901 113.862 445.242C110.225 435.704 108.48 423.274 108.48 408.099C108.48 392.795 110.224 380.299 113.862 370.758C117.544 361.099 123.581 353.921 132.017 349.465C140.323 345.077 151.109 343 164.165 343C177.347 343 188.203 345.075 196.512 349.465C204.948 353.921 210.985 361.099 214.667 370.758C218.305 380.299 220.049 392.795 220.049 408.099ZM211.866 444.199C215.325 435.124 217.055 423.091 217.055 408.099C217.055 392.975 215.325 380.876 211.866 371.801C208.406 362.727 202.818 356.151 195.101 352.074C187.383 347.997 177.071 345.959 164.165 345.959C151.391 345.959 141.146 347.997 133.428 352.074C125.711 356.151 120.123 362.727 116.663 371.801C113.204 380.876 111.474 392.975 111.474 408.099C111.474 423.091 113.204 435.124 116.663 444.199C120.123 453.273 125.711 459.849 133.428 463.926C141.146 468.003 151.391 470.041 164.165 470.041C177.071 470.041 187.383 468.003 195.101 463.926C202.818 459.849 208.406 453.273 211.866 444.199ZM181.928 435.124C179.134 440.911 173.213 443.804 164.165 443.804C155.25 443.804 149.329 440.911 146.401 435.124C143.607 429.206 142.21 420.198 142.21 408.099C142.21 395.868 143.607 386.859 146.401 381.073C149.329 375.286 155.25 372.393 164.165 372.393C173.213 372.393 179.134 375.286 181.928 381.073C184.855 386.859 186.319 395.868 186.319 408.099C186.319 420.198 184.855 429.206 181.928 435.124Z" fill="url(#paint9_linear_661_8747)"/>
<path opacity="0.7" fill-rule="evenodd" clip-rule="evenodd" d="M0.392974 384.821V354.385L1.79356 353.515C6.80938 350.398 13.2588 347.932 21.0347 346.044C28.8828 344.139 37.3752 343.197 46.4975 343.197C61.0907 343.197 73.1005 346.023 82.2613 351.962C92.0044 358.19 96.5938 368.633 96.5938 382.454C96.5938 393.295 94.0221 402.341 88.5897 409.309C83.3059 416.126 74.1863 421.765 61.7366 426.447C49.9067 430.914 42.0357 434.618 37.8455 437.542L37.8382 437.547L37.8308 437.552C35.8329 438.928 34.5329 440.162 33.7201 441.24H97.5917V472.211H-3V447.158C-3 440.132 -1.81638 433.956 0.679635 428.732L0.693997 428.702L0.709038 428.672C3.38496 423.382 7.83764 418.694 13.8486 414.549C19.8114 410.437 27.941 406.267 38.1506 402.018C45.6391 398.901 51.351 395.969 55.3723 393.237C59.1683 390.62 60.5632 387.86 60.47 384.913L60.4698 384.906L60.4696 384.899C60.3582 380.716 58.8363 378.338 56.2606 376.974L56.2037 376.944L56.1481 376.911C53.2149 375.193 48.7105 374.168 42.3062 374.168C36.2784 374.168 30.0839 375.223 23.7104 377.364L23.6848 377.373L23.6591 377.381C17.1548 379.438 11.4857 381.8 6.63111 384.452L5.95525 384.821H0.392974ZM57.0756 395.671C52.8178 398.564 46.8967 401.589 39.3124 404.745C29.2 408.953 21.2831 413.03 15.5616 416.976C9.84008 420.921 5.78181 425.261 3.38678 429.995C1.12479 434.73 -0.00619936 440.451 -0.00619936 447.158V469.252H94.5979V444.199H29.5326C29.5326 443.212 29.7661 442.226 30.233 441.24C31.1979 439.201 33.1599 437.163 36.119 435.124C40.643 431.968 48.826 428.154 60.6682 423.683C72.9095 419.08 81.4252 413.688 86.2153 407.507C91.1384 401.194 93.6 392.843 93.6 382.454C93.6 369.302 89.2756 359.965 80.6268 354.442C72.1111 348.918 60.7347 346.156 46.4975 346.156C37.5826 346.156 29.333 347.077 21.7488 348.918C14.1645 350.759 8.0438 353.126 3.38678 356.02V381.862H5.18306C5.57737 381.647 5.97655 381.433 6.38058 381.222C11.1573 378.723 16.6126 376.503 22.7467 374.563C29.3996 372.327 35.9194 371.209 42.3062 371.209C48.9591 371.209 54.0818 372.262 57.6744 374.366C61.4 376.338 63.3293 379.823 63.4624 384.821C63.5954 389.029 61.4665 392.646 57.0756 395.671Z" fill="url(#paint10_linear_661_8747)"/>
<path opacity="0.7" fill-rule="evenodd" clip-rule="evenodd" d="M234.393 384.624V354.187L235.794 353.317C240.809 350.201 247.259 347.735 255.035 345.847C262.883 343.942 271.375 343 280.498 343C295.091 343 307.1 345.826 316.261 351.765C326.004 357.993 330.594 368.436 330.594 382.256C330.594 393.098 328.022 402.144 322.59 409.112C317.306 415.928 308.186 421.568 295.737 426.25C283.907 430.717 276.036 434.421 271.845 437.345L271.838 437.35L271.831 437.355C269.833 438.731 268.533 439.964 267.72 441.042H331.592V472.014H231V446.961C231 439.935 232.184 433.759 234.68 428.535L234.694 428.505L234.709 428.475C237.385 423.185 241.838 418.497 247.849 414.352C253.811 410.24 261.941 406.069 272.151 401.821C279.639 398.704 285.351 395.771 289.372 393.04C293.168 390.422 294.563 387.662 294.47 384.716L294.47 384.709L294.47 384.702C294.358 380.519 292.836 378.141 290.261 376.777L290.204 376.747L290.148 376.714C287.215 374.996 282.711 373.971 276.306 373.971C270.278 373.971 264.084 375.025 257.71 377.167L257.685 377.176L257.659 377.184C251.155 379.241 245.486 381.603 240.631 384.255L239.955 384.624H234.393ZM291.076 395.473C286.818 398.367 280.897 401.391 273.312 404.548C263.2 408.756 255.283 412.833 249.562 416.778C243.84 420.724 239.782 425.064 237.387 429.798C235.125 434.533 233.994 440.253 233.994 446.961V469.055H328.598V444.002H263.533C263.533 443.015 263.766 442.029 264.233 441.042C265.198 439.004 267.16 436.966 270.119 434.927C274.643 431.771 282.826 427.957 294.668 423.486C306.909 418.883 315.425 413.491 320.215 407.31C325.138 400.997 327.6 392.646 327.6 382.256C327.6 369.105 323.276 359.768 314.627 354.244C306.111 348.721 294.735 345.959 280.498 345.959C271.583 345.959 263.333 346.88 255.749 348.721C248.164 350.562 242.044 352.929 237.387 355.822V381.665H239.183C239.577 381.449 239.977 381.236 240.381 381.024C245.157 378.525 250.613 376.306 256.747 374.366C263.4 372.13 269.919 371.012 276.306 371.012C282.959 371.012 288.082 372.064 291.674 374.168C295.4 376.141 297.329 379.626 297.462 384.624C297.595 388.832 295.467 392.449 291.076 395.473Z" fill="url(#paint11_linear_661_8747)"/>
</g>
<g opacity="0.3">
<path opacity="0.7" fill-rule="evenodd" clip-rule="evenodd" d="M414.177 283.85L414.183 283.837L414.189 283.825C416.812 278.523 418.276 270.064 418.276 258.099C418.276 245.988 416.808 237.549 414.201 232.396L414.189 232.372L414.177 232.347C412.073 227.99 407.538 225.352 399.116 225.352C390.874 225.352 386.284 227.964 384.043 232.372C381.553 237.546 380.155 245.999 380.155 258.099C380.155 270.045 381.547 278.513 384.048 283.836C386.292 288.237 390.88 290.845 399.116 290.845C407.538 290.845 412.073 288.208 414.177 283.85ZM381.353 231.073C384.28 225.286 390.201 222.393 399.116 222.393C408.164 222.393 414.085 225.286 416.879 231.073C419.806 236.859 421.27 245.868 421.27 258.099C421.27 270.198 419.806 279.206 416.879 285.124C414.085 290.911 408.164 293.804 399.116 293.804C390.201 293.804 384.28 290.911 381.353 285.124C378.558 279.206 377.161 270.198 377.161 258.099C377.161 245.868 378.558 236.859 381.353 231.073ZM455 258.099C455 273.274 453.255 285.703 449.619 295.242C445.936 304.901 439.899 312.079 431.463 316.535C423.154 320.925 412.298 323 399.116 323C386.06 323 375.274 320.923 366.968 316.535C358.532 312.079 352.495 304.901 348.813 295.242C345.176 285.704 343.431 273.274 343.431 258.099C343.431 242.795 345.175 230.299 348.813 220.758C352.495 211.099 358.532 203.921 366.968 199.465C375.274 195.077 386.06 193 399.116 193C412.298 193 423.154 195.075 431.463 199.465C439.899 203.921 445.936 211.099 449.619 220.758C453.256 230.299 455 242.795 455 258.099ZM446.817 294.199C450.277 285.124 452.006 273.091 452.006 258.099C452.006 242.975 450.277 230.876 446.817 221.801C443.358 212.727 437.769 206.151 430.052 202.074C422.334 197.997 412.022 195.959 399.116 195.959C386.342 195.959 376.097 197.997 368.379 202.074C360.662 206.151 355.074 212.727 351.614 221.801C348.155 230.876 346.425 242.975 346.425 258.099C346.425 273.091 348.155 285.124 351.614 294.199C355.074 303.273 360.662 309.849 368.379 313.926C376.097 318.003 386.342 320.041 399.116 320.041C412.022 320.041 422.334 318.003 430.052 313.926C437.769 309.849 443.358 303.273 446.817 294.199Z" fill="url(#paint12_linear_661_8747)"/>
<path opacity="0.7" fill-rule="evenodd" clip-rule="evenodd" d="M179.232 283.837L179.238 283.825C181.861 278.523 183.325 270.064 183.325 258.099C183.325 245.988 181.857 237.549 179.25 232.396L179.238 232.372L179.226 232.347C177.122 227.99 172.587 225.352 164.165 225.352C155.922 225.352 151.333 227.964 149.091 232.373C146.602 237.546 145.204 245.999 145.204 258.099C145.204 270.045 146.596 278.514 149.097 283.836C151.341 288.238 155.929 290.845 164.165 290.845C172.587 290.845 177.122 288.208 179.226 283.85L179.232 283.837ZM220.049 258.099C220.049 273.274 218.304 285.703 214.667 295.242C210.985 304.901 204.948 312.079 196.512 316.535C188.203 320.925 177.347 323 164.165 323C151.109 323 140.323 320.923 132.017 316.535C123.581 312.079 117.544 304.901 113.862 295.242C110.225 285.704 108.48 273.274 108.48 258.099C108.48 242.795 110.224 230.299 113.862 220.758C117.544 211.099 123.581 203.921 132.017 199.465C140.323 195.077 151.109 193 164.165 193C177.347 193 188.203 195.075 196.512 199.465C204.948 203.921 210.985 211.099 214.667 220.758C218.305 230.299 220.049 242.795 220.049 258.099ZM211.866 294.199C215.325 285.124 217.055 273.091 217.055 258.099C217.055 242.975 215.325 230.876 211.866 221.801C208.406 212.727 202.818 206.151 195.101 202.074C187.383 197.997 177.071 195.959 164.165 195.959C151.391 195.959 141.146 197.997 133.428 202.074C125.711 206.151 120.123 212.727 116.663 221.801C113.204 230.876 111.474 242.975 111.474 258.099C111.474 273.091 113.204 285.124 116.663 294.199C120.123 303.273 125.711 309.849 133.428 313.926C141.146 318.003 151.391 320.041 164.165 320.041C177.071 320.041 187.383 318.003 195.101 313.926C202.818 309.849 208.406 303.273 211.866 294.199ZM181.928 285.124C179.134 290.911 173.213 293.804 164.165 293.804C155.25 293.804 149.329 290.911 146.401 285.124C143.607 279.206 142.21 270.198 142.21 258.099C142.21 245.868 143.607 236.859 146.401 231.073C149.329 225.286 155.25 222.393 164.165 222.393C173.213 222.393 179.134 225.286 181.928 231.073C184.855 236.859 186.319 245.868 186.319 258.099C186.319 270.198 184.855 279.206 181.928 285.124Z" fill="url(#paint13_linear_661_8747)"/>
<path opacity="0.7" fill-rule="evenodd" clip-rule="evenodd" d="M0.392974 234.821V204.385L1.79356 203.515C6.80938 200.398 13.2588 197.932 21.0347 196.044C28.8828 194.139 37.3752 193.197 46.4975 193.197C61.0907 193.197 73.1005 196.023 82.2613 201.962C92.0044 208.19 96.5938 218.633 96.5938 232.454C96.5938 243.295 94.0221 252.341 88.5897 259.309C83.3059 266.126 74.1863 271.765 61.7366 276.447C49.9067 280.914 42.0357 284.618 37.8455 287.542L37.8382 287.547L37.8308 287.552C35.8329 288.928 34.5329 290.162 33.7201 291.24H97.5917V322.211H-3V297.158C-3 290.132 -1.81638 283.956 0.679635 278.732L0.693997 278.702L0.709038 278.672C3.38496 273.382 7.83764 268.694 13.8486 264.549C19.8114 260.437 27.941 256.267 38.1506 252.018C45.6391 248.901 51.351 245.969 55.3723 243.237C59.1683 240.62 60.5632 237.86 60.47 234.913L60.4698 234.906L60.4696 234.899C60.3582 230.716 58.8363 228.338 56.2606 226.974L56.2037 226.944L56.1481 226.911C53.2149 225.193 48.7105 224.168 42.3062 224.168C36.2784 224.168 30.0839 225.223 23.7104 227.364L23.6848 227.373L23.6591 227.381C17.1548 229.438 11.4857 231.8 6.63111 234.452L5.95525 234.821H0.392974ZM57.0756 245.671C52.8178 248.564 46.8967 251.589 39.3124 254.745C29.2 258.953 21.2831 263.03 15.5616 266.976C9.84008 270.921 5.78181 275.261 3.38678 279.995C1.12479 284.73 -0.00619936 290.451 -0.00619936 297.158V319.252H94.5979V294.199H29.5326C29.5326 293.212 29.7661 292.226 30.233 291.24C31.1979 289.201 33.1599 287.163 36.119 285.124C40.643 281.968 48.826 278.154 60.6682 273.683C72.9095 269.08 81.4252 263.688 86.2153 257.507C91.1384 251.194 93.6 242.843 93.6 232.454C93.6 219.302 89.2756 209.965 80.6268 204.442C72.1111 198.918 60.7347 196.156 46.4975 196.156C37.5826 196.156 29.333 197.077 21.7488 198.918C14.1645 200.759 8.0438 203.126 3.38678 206.02V231.862H5.18306C5.57737 231.647 5.97655 231.433 6.38058 231.222C11.1573 228.723 16.6126 226.503 22.7467 224.563C29.3996 222.327 35.9194 221.209 42.3062 221.209C48.9591 221.209 54.0818 222.262 57.6744 224.366C61.4 226.338 63.3293 229.823 63.4624 234.821C63.5954 239.029 61.4665 242.646 57.0756 245.671Z" fill="url(#paint14_linear_661_8747)"/>
<path opacity="0.7" fill-rule="evenodd" clip-rule="evenodd" d="M234.393 234.624V204.187L235.794 203.317C240.809 200.201 247.259 197.735 255.035 195.847C262.883 193.942 271.375 193 280.498 193C295.091 193 307.1 195.826 316.261 201.765C326.004 207.993 330.594 218.436 330.594 232.256C330.594 243.098 328.022 252.144 322.59 259.112C317.306 265.928 308.186 271.568 295.737 276.25C283.907 280.717 276.036 284.421 271.845 287.345L271.838 287.35L271.831 287.355C269.833 288.731 268.533 289.964 267.72 291.042H331.592V322.014H231V296.961C231 289.935 232.184 283.759 234.68 278.535L234.694 278.505L234.709 278.475C237.385 273.185 241.838 268.497 247.849 264.352C253.811 260.24 261.941 256.069 272.151 251.821C279.639 248.704 285.351 245.771 289.372 243.04C293.168 240.422 294.563 237.662 294.47 234.716L294.47 234.709L294.47 234.702C294.358 230.519 292.836 228.141 290.261 226.777L290.204 226.747L290.148 226.714C287.215 224.996 282.711 223.971 276.306 223.971C270.278 223.971 264.084 225.025 257.71 227.167L257.685 227.176L257.659 227.184C251.155 229.241 245.486 231.603 240.631 234.255L239.955 234.624H234.393ZM291.076 245.473C286.818 248.367 280.897 251.391 273.312 254.548C263.2 258.756 255.283 262.833 249.562 266.778C243.84 270.724 239.782 275.064 237.387 279.798C235.125 284.533 233.994 290.253 233.994 296.961V319.055H328.598V294.002H263.533C263.533 293.015 263.766 292.029 264.233 291.042C265.198 289.004 267.16 286.966 270.119 284.927C274.643 281.771 282.826 277.957 294.668 273.486C306.909 268.883 315.425 263.491 320.215 257.31C325.138 250.997 327.6 242.646 327.6 232.256C327.6 219.105 323.276 209.768 314.627 204.244C306.111 198.721 294.735 195.959 280.498 195.959C271.583 195.959 263.333 196.88 255.749 198.721C248.164 200.562 242.044 202.929 237.387 205.822V231.665H239.183C239.577 231.449 239.977 231.236 240.381 231.024C245.157 228.525 250.613 226.306 256.747 224.366C263.4 222.13 269.919 221.012 276.306 221.012C282.959 221.012 288.082 222.064 291.674 224.168C295.4 226.141 297.329 229.626 297.462 234.624C297.595 238.832 295.467 242.449 291.076 245.473Z" fill="url(#paint15_linear_661_8747)"/>
</g>
<g opacity="0.15">
<path opacity="0.7" fill-rule="evenodd" clip-rule="evenodd" d="M414.177 133.85L414.183 133.837L414.189 133.825C416.812 128.523 418.276 120.064 418.276 108.099C418.276 95.9881 416.808 87.5493 414.201 82.3961L414.189 82.3719L414.177 82.3474C412.073 77.9896 407.538 75.352 399.116 75.352C390.874 75.352 386.284 77.9638 384.043 82.372C381.553 87.5455 380.155 95.9987 380.155 108.099C380.155 120.045 381.547 128.513 384.048 133.836C386.292 138.237 390.88 140.845 399.116 140.845C407.538 140.845 412.073 138.208 414.177 133.85ZM381.353 81.0728C384.28 75.2863 390.201 72.393 399.116 72.393C408.164 72.393 414.085 75.2863 416.879 81.0728C419.806 86.8594 421.27 95.868 421.27 108.099C421.27 120.198 419.806 129.206 416.879 135.124C414.085 140.911 408.164 143.804 399.116 143.804C390.201 143.804 384.28 140.911 381.353 135.124C378.558 129.206 377.161 120.198 377.161 108.099C377.161 95.868 378.558 86.8594 381.353 81.0728ZM455 108.099C455 123.274 453.255 135.703 449.619 145.242C445.936 154.901 439.899 162.079 431.463 166.535C423.154 170.925 412.298 173 399.116 173C386.06 173 375.274 170.923 366.968 166.535C358.532 162.079 352.495 154.901 348.813 145.242C345.176 135.704 343.431 123.274 343.431 108.099C343.431 92.7953 345.175 80.2987 348.813 70.7578C352.495 61.0992 358.532 53.9213 366.968 49.4647C375.274 45.0772 386.06 43 399.116 43C412.298 43 423.154 45.0752 431.463 49.4647C439.899 53.9213 445.936 61.0992 449.619 70.7578C453.256 80.2987 455 92.7953 455 108.099ZM446.817 144.199C450.277 135.124 452.006 123.091 452.006 108.099C452.006 92.9747 450.277 80.8756 446.817 71.8012C443.358 62.7269 437.769 56.1512 430.052 52.0744C422.334 47.9975 412.022 45.959 399.116 45.959C386.342 45.959 376.097 47.9975 368.379 52.0744C360.662 56.1512 355.074 62.7269 351.614 71.8012C348.155 80.8756 346.425 92.9747 346.425 108.099C346.425 123.091 348.155 135.124 351.614 144.199C355.074 153.273 360.662 159.849 368.379 163.926C376.097 168.003 386.342 170.041 399.116 170.041C412.022 170.041 422.334 168.003 430.052 163.926C437.769 159.849 443.358 153.273 446.817 144.199Z" fill="url(#paint16_linear_661_8747)"/>
<path opacity="0.7" fill-rule="evenodd" clip-rule="evenodd" d="M179.232 133.837L179.238 133.825C181.861 128.523 183.325 120.064 183.325 108.099C183.325 95.9881 181.857 87.5493 179.25 82.3961L179.238 82.3719L179.226 82.3474C177.122 77.9896 172.587 75.352 164.165 75.352C155.922 75.352 151.333 77.964 149.091 82.3726C146.602 87.5462 145.204 95.9991 145.204 108.099C145.204 120.045 146.596 128.514 149.097 133.836C151.341 138.238 155.929 140.845 164.165 140.845C172.587 140.845 177.122 138.208 179.226 133.85L179.232 133.837ZM220.049 108.099C220.049 123.274 218.304 135.703 214.667 145.242C210.985 154.901 204.948 162.079 196.512 166.535C188.203 170.925 177.347 173 164.165 173C151.109 173 140.323 170.923 132.017 166.535C123.581 162.079 117.544 154.901 113.862 145.242C110.225 135.704 108.48 123.274 108.48 108.099C108.48 92.7953 110.224 80.2987 113.862 70.7578C117.544 61.0992 123.581 53.9213 132.017 49.4647C140.323 45.0772 151.109 43 164.165 43C177.347 43 188.203 45.0752 196.512 49.4647C204.948 53.9213 210.985 61.0992 214.667 70.7578C218.305 80.2987 220.049 92.7953 220.049 108.099ZM211.866 144.199C215.325 135.124 217.055 123.091 217.055 108.099C217.055 92.9747 215.325 80.8756 211.866 71.8012C208.406 62.7269 202.818 56.1512 195.101 52.0744C187.383 47.9975 177.071 45.959 164.165 45.959C151.391 45.959 141.146 47.9975 133.428 52.0744C125.711 56.1512 120.123 62.7269 116.663 71.8012C113.204 80.8756 111.474 92.9747 111.474 108.099C111.474 123.091 113.204 135.124 116.663 144.199C120.123 153.273 125.711 159.849 133.428 163.926C141.146 168.003 151.391 170.041 164.165 170.041C177.071 170.041 187.383 168.003 195.101 163.926C202.818 159.849 208.406 153.273 211.866 144.199ZM181.928 135.124C179.134 140.911 173.213 143.804 164.165 143.804C155.25 143.804 149.329 140.911 146.401 135.124C143.607 129.206 142.21 120.198 142.21 108.099C142.21 95.868 143.607 86.8594 146.401 81.0728C149.329 75.2863 155.25 72.393 164.165 72.393C173.213 72.393 179.134 75.2863 181.928 81.0728C184.855 86.8594 186.319 95.868 186.319 108.099C186.319 120.198 184.855 129.206 181.928 135.124Z" fill="url(#paint17_linear_661_8747)"/>
<path opacity="0.7" fill-rule="evenodd" clip-rule="evenodd" d="M0.392974 84.8209V54.3846L1.79356 53.5145C6.80938 50.3983 13.2588 47.9321 21.0347 46.0444C28.8828 44.1392 37.3752 43.1973 46.4975 43.1973C61.0907 43.1973 73.1005 46.0234 82.2613 51.9624C92.0044 58.1898 96.5938 68.6334 96.5938 82.4537C96.5938 93.2954 94.0221 102.341 88.5897 109.309C83.3059 116.126 74.1863 121.765 61.7366 126.447C49.9067 130.914 42.0357 134.618 37.8455 137.542L37.8382 137.547L37.8308 137.552C35.8329 138.928 34.5329 140.162 33.7201 141.24H97.5917V172.211H-3V147.158C-3 140.132 -1.81638 133.956 0.679635 128.732L0.693997 128.702L0.709038 128.672C3.38496 123.382 7.83764 118.694 13.8486 114.549C19.8114 110.437 27.941 106.267 38.1506 102.018C45.6391 98.9015 51.351 95.9687 55.3723 93.2373C59.1683 90.6196 60.5632 87.8595 60.47 84.9134L60.4698 84.9061L60.4696 84.8988C60.3582 80.7163 58.8363 78.3378 56.2606 76.974L56.2037 76.9439L56.1481 76.9113C53.2149 75.1933 48.7105 74.1684 42.3062 74.1684C36.2784 74.1684 30.0839 75.2227 23.7104 77.3645L23.6848 77.3731L23.6591 77.3812C17.1548 79.4384 11.4857 81.8001 6.63111 84.4518L5.95525 84.8209H0.392974ZM57.0756 95.6707C52.8178 98.564 46.8967 101.589 39.3124 104.745C29.2 108.953 21.2831 113.03 15.5616 116.976C9.84008 120.921 5.78181 125.261 3.38678 129.995C1.12479 134.73 -0.00619936 140.451 -0.00619936 147.158V169.252H94.5979V144.199H29.5326C29.5326 143.212 29.7661 142.226 30.233 141.24C31.1979 139.201 33.1599 137.163 36.119 135.124C40.643 131.968 48.826 128.154 60.6682 123.683C72.9095 119.08 81.4252 113.688 86.2153 107.507C91.1384 101.194 93.6 92.8432 93.6 82.4537C93.6 69.3025 89.2756 59.9651 80.6268 54.4416C72.1111 48.9181 60.7347 46.1563 46.4975 46.1563C37.5826 46.1563 29.333 47.0769 21.7488 48.9181C14.1645 50.7592 8.0438 53.1264 3.38678 56.0197V81.8619H5.18306C5.57737 81.6465 5.97655 81.4331 6.38058 81.2218C11.1573 78.7227 16.6126 76.5031 22.7467 74.563C29.3996 72.3273 35.9194 71.2094 42.3062 71.2094C48.9591 71.2094 54.0818 72.2615 57.6744 74.3657C61.4 76.3384 63.3293 79.8235 63.4624 84.8209C63.5954 89.0293 61.4665 92.6459 57.0756 95.6707Z" fill="url(#paint18_linear_661_8747)"/>
<path opacity="0.7" fill-rule="evenodd" clip-rule="evenodd" d="M234.393 84.6237V54.1874L235.794 53.3172C240.809 50.2011 247.259 47.7348 255.035 45.8472C262.883 43.9419 271.375 43 280.498 43C295.091 43 307.1 45.8261 316.261 51.7651C326.004 57.9925 330.594 68.4362 330.594 82.2564C330.594 93.0981 328.022 102.144 322.59 109.112C317.306 115.928 308.186 121.568 295.737 126.25C283.907 130.717 276.036 134.421 271.845 137.345L271.838 137.35L271.831 137.355C269.833 138.731 268.533 139.964 267.72 141.042H331.592V172.014H231V146.961C231 139.935 232.184 133.759 234.68 128.535L234.694 128.505L234.709 128.475C237.385 123.185 241.838 118.497 247.849 114.352C253.811 110.24 261.941 106.069 272.151 101.821C279.639 98.7042 285.351 95.7714 289.372 93.04C293.168 90.4223 294.563 87.6623 294.47 84.7161L294.47 84.7088L294.47 84.7015C294.358 80.519 292.836 78.1405 290.261 76.7768L290.204 76.7466L290.148 76.7141C287.215 74.996 282.711 73.9712 276.306 73.9712C270.278 73.9712 264.084 75.0254 257.71 77.1672L257.685 77.1758L257.659 77.184C251.155 79.2412 245.486 81.6029 240.631 84.2545L239.955 84.6237H234.393ZM291.076 95.4735C286.818 98.3667 280.897 101.391 273.312 104.548C263.2 108.756 255.283 112.833 249.562 116.778C243.84 120.724 239.782 125.064 237.387 129.798C235.125 134.533 233.994 140.253 233.994 146.961V169.055H328.598V144.002H263.533C263.533 143.015 263.766 142.029 264.233 141.042C265.198 139.004 267.16 136.966 270.119 134.927C274.643 131.771 282.826 127.957 294.668 123.486C306.909 118.883 315.425 113.491 320.215 107.31C325.138 100.997 327.6 92.6459 327.6 82.2564C327.6 69.1052 323.276 59.7678 314.627 54.2443C306.111 48.7208 294.735 45.959 280.498 45.959C271.583 45.959 263.333 46.8796 255.749 48.7208C248.164 50.562 242.044 52.9292 237.387 55.8225V81.6646H239.183C239.577 81.4493 239.977 81.2359 240.381 81.0245C245.157 78.5254 250.613 76.3058 256.747 74.3657C263.4 72.13 269.919 71.0121 276.306 71.0121C282.959 71.0121 288.082 72.0642 291.674 74.1684C295.4 76.1411 297.329 79.6262 297.462 84.6237C297.595 88.8321 295.467 92.4487 291.076 95.4735Z" fill="url(#paint19_linear_661_8747)"/>
</g>
<g opacity="0.08">
<path opacity="0.7" fill-rule="evenodd" clip-rule="evenodd" d="M414.177 -16.1501L414.183 -16.1627L414.189 -16.1752C416.812 -21.4774 418.276 -29.9364 418.276 -41.9014C418.276 -54.0119 416.808 -62.4507 414.201 -67.6039L414.189 -67.6281L414.177 -67.6526C412.073 -72.0104 407.538 -74.648 399.116 -74.648C390.874 -74.648 386.284 -72.0362 384.043 -67.628C381.553 -62.4545 380.155 -54.0013 380.155 -41.9014C380.155 -29.9554 381.547 -21.4869 384.048 -16.1645C386.292 -11.7625 390.88 -9.15479 399.116 -9.15479C407.538 -9.15479 412.073 -11.7923 414.177 -16.1501ZM381.353 -68.9272C384.28 -74.7137 390.201 -77.607 399.116 -77.607C408.164 -77.607 414.085 -74.7137 416.879 -68.9272C419.806 -63.1406 421.27 -54.132 421.27 -41.9014C421.27 -29.8022 419.806 -20.7936 416.879 -14.8756C414.085 -9.08904 408.164 -6.19576 399.116 -6.19576C390.201 -6.19576 384.28 -9.08904 381.353 -14.8756C378.558 -20.7936 377.161 -29.8022 377.161 -41.9014C377.161 -54.132 378.558 -63.1406 381.353 -68.9272ZM455 -41.9014C455 -26.7259 453.255 -14.2965 449.619 -4.75784C445.936 4.90076 439.899 12.0787 431.463 16.5353C423.154 20.9248 412.298 23 399.116 23C386.06 23 375.274 20.9228 366.968 16.5353C358.532 12.0787 352.495 4.90076 348.813 -4.75784C345.176 -14.2965 343.431 -26.7259 343.431 -41.9014C343.431 -57.2047 345.175 -69.7013 348.813 -79.2422C352.495 -88.9008 358.532 -96.0787 366.968 -100.535C375.274 -104.923 386.06 -107 399.116 -107C412.298 -107 423.154 -104.925 431.463 -100.535C439.899 -96.0787 445.936 -88.9008 449.619 -79.2422C453.256 -69.7013 455 -57.2047 455 -41.9014ZM446.817 -5.80121C450.277 -14.8756 452.006 -26.909 452.006 -41.9014C452.006 -57.0253 450.277 -69.1244 446.817 -78.1988C443.358 -87.2731 437.769 -93.8488 430.052 -97.9256C422.334 -102.003 412.022 -104.041 399.116 -104.041C386.342 -104.041 376.097 -102.003 368.379 -97.9256C360.662 -93.8488 355.074 -87.2731 351.614 -78.1988C348.155 -69.1244 346.425 -57.0253 346.425 -41.9014C346.425 -26.909 348.155 -14.8756 351.614 -5.80121C355.074 3.27314 360.662 9.84876 368.379 13.9256C376.097 18.0025 386.342 20.041 399.116 20.041C412.022 20.041 422.334 18.0025 430.052 13.9256C437.769 9.84876 443.358 3.27314 446.817 -5.80121Z" fill="url(#paint20_linear_661_8747)"/>
<path opacity="0.7" fill-rule="evenodd" clip-rule="evenodd" d="M179.232 -16.1627L179.238 -16.1752C181.861 -21.4774 183.325 -29.9364 183.325 -41.9014C183.325 -54.0119 181.857 -62.4507 179.25 -67.6039L179.238 -67.6281L179.226 -67.6526C177.122 -72.0104 172.587 -74.648 164.165 -74.648C155.922 -74.648 151.333 -72.036 149.091 -67.6274C146.602 -62.4538 145.204 -54.0009 145.204 -41.9014C145.204 -29.9551 146.596 -21.4865 149.097 -16.1641C151.341 -11.7624 155.929 -9.15479 164.165 -9.15479C172.587 -9.15479 177.122 -11.7923 179.226 -16.1501L179.232 -16.1627ZM220.049 -41.9014C220.049 -26.7259 218.304 -14.2965 214.667 -4.75784C210.985 4.90076 204.948 12.0787 196.512 16.5353C188.203 20.9248 177.347 23 164.165 23C151.109 23 140.323 20.9228 132.017 16.5353C123.581 12.0787 117.544 4.90076 113.862 -4.75784C110.225 -14.2965 108.48 -26.7259 108.48 -41.9014C108.48 -57.2047 110.224 -69.7013 113.862 -79.2422C117.544 -88.9008 123.581 -96.0787 132.017 -100.535C140.323 -104.923 151.109 -107 164.165 -107C177.347 -107 188.203 -104.925 196.512 -100.535C204.948 -96.0787 210.985 -88.9008 214.667 -79.2422C218.305 -69.7013 220.049 -57.2047 220.049 -41.9014ZM211.866 -5.80121C215.325 -14.8756 217.055 -26.909 217.055 -41.9014C217.055 -57.0253 215.325 -69.1244 211.866 -78.1988C208.406 -87.2731 202.818 -93.8488 195.101 -97.9256C187.383 -102.003 177.071 -104.041 164.165 -104.041C151.391 -104.041 141.146 -102.003 133.428 -97.9256C125.711 -93.8488 120.123 -87.2731 116.663 -78.1988C113.204 -69.1244 111.474 -57.0253 111.474 -41.9014C111.474 -26.909 113.204 -14.8756 116.663 -5.80121C120.123 3.27314 125.711 9.84876 133.428 13.9256C141.146 18.0025 151.391 20.041 164.165 20.041C177.071 20.041 187.383 18.0025 195.101 13.9256C202.818 9.84876 208.406 3.27314 211.866 -5.80121ZM181.928 -14.8756C179.134 -9.08904 173.213 -6.19576 164.165 -6.19576C155.25 -6.19576 149.329 -9.08904 146.401 -14.8756C143.607 -20.7936 142.21 -29.8022 142.21 -41.9014C142.21 -54.132 143.607 -63.1406 146.401 -68.9272C149.329 -74.7137 155.25 -77.607 164.165 -77.607C173.213 -77.607 179.134 -74.7137 181.928 -68.9272C184.855 -63.1406 186.319 -54.132 186.319 -41.9014C186.319 -29.8022 184.855 -20.7936 181.928 -14.8756Z" fill="url(#paint21_linear_661_8747)"/>
<path opacity="0.7" fill-rule="evenodd" clip-rule="evenodd" d="M0.392974 -65.1791V-95.6154L1.79356 -96.4855C6.80938 -99.6017 13.2588 -102.068 21.0347 -103.956C28.8828 -105.861 37.3752 -106.803 46.4975 -106.803C61.0907 -106.803 73.1005 -103.977 82.2613 -98.0376C92.0044 -91.8102 96.5938 -81.3666 96.5938 -67.5463C96.5938 -56.7046 94.0221 -47.6589 88.5897 -40.691C83.3059 -33.8745 74.1863 -28.2347 61.7366 -23.553C49.9067 -19.0862 42.0357 -15.3816 37.8455 -12.4581L37.8382 -12.453L37.8308 -12.448C35.8329 -11.0717 34.5329 -9.83835 33.7201 -8.76024H97.5917V22.2109H-3V-2.84219C-3 -9.86771 -1.81638 -16.0438 0.679635 -21.2681L0.693997 -21.2981L0.709038 -21.3279C3.38496 -26.6176 7.83764 -31.3061 13.8486 -35.4511C19.8114 -39.5629 27.941 -43.7332 38.1506 -47.9821C45.6391 -51.0985 51.351 -54.0313 55.3723 -56.7627C59.1683 -59.3804 60.5632 -62.1405 60.47 -65.0866L60.4698 -65.0939L60.4696 -65.1012C60.3582 -69.2837 58.8363 -71.6622 56.2606 -73.026L56.2037 -73.0561L56.1481 -73.0887C53.2149 -74.8067 48.7105 -75.8316 42.3062 -75.8316C36.2784 -75.8316 30.0839 -74.7773 23.7104 -72.6355L23.6848 -72.6269L23.6591 -72.6188C17.1548 -70.5616 11.4857 -68.1999 6.63111 -65.5482L5.95525 -65.1791H0.392974ZM57.0756 -54.3293C52.8178 -51.436 46.8967 -48.4112 39.3124 -45.2549C29.2 -41.0465 21.2831 -36.9697 15.5616 -33.0243C9.84008 -29.0789 5.78181 -24.739 3.38678 -20.0046C1.12479 -15.2701 -0.00619936 -9.54932 -0.00619936 -2.84219V19.2519H94.5979V-5.80121H29.5326C29.5326 -6.78755 29.7661 -7.7739 30.233 -8.76024C31.1979 -10.7987 33.1599 -12.8371 36.119 -14.8756C40.643 -18.0319 48.826 -21.8457 60.6682 -26.3171C72.9095 -30.9201 81.4252 -36.3121 86.2153 -42.4932C91.1384 -48.8058 93.6 -57.1568 93.6 -67.5463C93.6 -80.6975 89.2756 -90.0349 80.6268 -95.5584C72.1111 -101.082 60.7347 -103.844 46.4975 -103.844C37.5826 -103.844 29.333 -102.923 21.7488 -101.082C14.1645 -99.2408 8.0438 -96.8736 3.38678 -93.9803V-68.1381H5.18306C5.57737 -68.3535 5.97655 -68.5669 6.38058 -68.7782C11.1573 -71.2773 16.6126 -73.4969 22.7467 -75.437C29.3996 -77.6727 35.9194 -78.7906 42.3062 -78.7906C48.9591 -78.7906 54.0818 -77.7385 57.6744 -75.6343C61.4 -73.6616 63.3293 -70.1765 63.4624 -65.1791C63.5954 -60.9707 61.4665 -57.3541 57.0756 -54.3293Z" fill="url(#paint22_linear_661_8747)"/>
<path opacity="0.7" fill-rule="evenodd" clip-rule="evenodd" d="M234.393 -65.3763V-95.8126L235.794 -96.6828C240.809 -99.7989 247.259 -102.265 255.035 -104.153C262.883 -106.058 271.375 -107 280.498 -107C295.091 -107 307.1 -104.174 316.261 -98.2349C326.004 -92.0075 330.594 -81.5638 330.594 -67.7436C330.594 -56.9019 328.022 -47.8562 322.59 -40.8882C317.306 -34.0717 308.186 -28.432 295.737 -23.7502C283.907 -19.2834 276.036 -15.5788 271.845 -12.6554L271.838 -12.6503L271.831 -12.6453C269.833 -11.269 268.533 -10.0356 267.72 -8.9575H331.592V22.0137H231V-3.03945C231 -10.065 232.184 -16.2411 234.68 -21.4653L234.694 -21.4954L234.709 -21.5251C237.385 -26.8148 241.838 -31.5034 247.849 -35.6483C253.811 -39.7601 261.941 -43.9305 272.151 -48.1793C279.639 -51.2958 285.351 -54.2286 289.372 -56.96C293.168 -59.5777 294.563 -62.3377 294.47 -65.2839L294.47 -65.2912L294.47 -65.2985C294.358 -69.481 292.836 -71.8595 290.261 -73.2232L290.204 -73.2534L290.148 -73.2859C287.215 -75.004 282.711 -76.0288 276.306 -76.0288C270.278 -76.0288 264.084 -74.9746 257.71 -72.8328L257.685 -72.8242L257.659 -72.816C251.155 -70.7588 245.486 -68.3971 240.631 -65.7455L239.955 -65.3763H234.393ZM291.076 -54.5265C286.818 -51.6333 280.897 -48.6085 273.312 -45.4522C263.2 -41.2438 255.283 -37.1669 249.562 -33.2215C243.84 -29.2762 239.782 -24.9363 237.387 -20.2018C235.125 -15.4674 233.994 -9.74658 233.994 -3.03945V19.0546H328.598V-5.99847H263.533C263.533 -6.98482 263.766 -7.97116 264.233 -8.9575C265.198 -10.9959 267.16 -13.0344 270.119 -15.0728C274.643 -18.2291 282.826 -22.043 294.668 -26.5144C306.909 -31.1173 315.425 -36.5094 320.215 -42.6904C325.138 -49.003 327.6 -57.3541 327.6 -67.7436C327.6 -80.8948 323.276 -90.2322 314.627 -95.7557C306.111 -101.279 294.735 -104.041 280.498 -104.041C271.583 -104.041 263.333 -103.12 255.749 -101.279C248.164 -99.438 242.044 -97.0708 237.387 -94.1775V-68.3354H239.183C239.577 -68.5507 239.977 -68.7641 240.381 -68.9755C245.157 -71.4746 250.613 -73.6942 256.747 -75.6343C263.4 -77.87 269.919 -78.9879 276.306 -78.9879C282.959 -78.9879 288.082 -77.9358 291.674 -75.8316C295.4 -73.8589 297.329 -70.3738 297.462 -65.3763C297.595 -61.1679 295.467 -57.5513 291.076 -54.5265Z" fill="url(#paint23_linear_661_8747)"/>
</g>
<defs>
<linearGradient id="paint0_linear_661_8747" x1="218.395" y1="625.049" x2="217.267" y2="776.092" gradientUnits="userSpaceOnUse">
<stop stop-color="#FEFBF3" stop-opacity="0"/>
<stop offset="1" stop-color="#FEFBF3" stop-opacity="0.6"/>
</linearGradient>
<linearGradient id="paint1_linear_661_8747" x1="218.394" y1="625.049" x2="217.266" y2="776.092" gradientUnits="userSpaceOnUse">
<stop stop-color="#FEFBF3" stop-opacity="0"/>
<stop offset="1" stop-color="#FEFBF3" stop-opacity="0.6"/>
</linearGradient>
<linearGradient id="paint2_linear_661_8747" x1="218.395" y1="625.049" x2="217.267" y2="776.092" gradientUnits="userSpaceOnUse">
<stop stop-color="#FEFBF3" stop-opacity="0"/>
<stop offset="1" stop-color="#FEFBF3" stop-opacity="0.6"/>
</linearGradient>
<linearGradient id="paint3_linear_661_8747" x1="452.395" y1="624.851" x2="451.267" y2="775.895" gradientUnits="userSpaceOnUse">
<stop stop-color="#FEFBF3" stop-opacity="0"/>
<stop offset="1" stop-color="#FEFBF3" stop-opacity="0.6"/>
</linearGradient>
<linearGradient id="paint4_linear_661_8747" x1="218.395" y1="475.049" x2="217.267" y2="626.092" gradientUnits="userSpaceOnUse">
<stop stop-color="#FEFBF3" stop-opacity="0"/>
<stop offset="1" stop-color="#FEFBF3" stop-opacity="0.6"/>
</linearGradient>
<linearGradient id="paint5_linear_661_8747" x1="218.394" y1="475.049" x2="217.266" y2="626.092" gradientUnits="userSpaceOnUse">
<stop stop-color="#FEFBF3" stop-opacity="0"/>
<stop offset="1" stop-color="#FEFBF3" stop-opacity="0.6"/>
</linearGradient>
<linearGradient id="paint6_linear_661_8747" x1="218.395" y1="475.049" x2="217.267" y2="626.092" gradientUnits="userSpaceOnUse">
<stop stop-color="#FEFBF3" stop-opacity="0"/>
<stop offset="1" stop-color="#FEFBF3" stop-opacity="0.6"/>
</linearGradient>
<linearGradient id="paint7_linear_661_8747" x1="452.395" y1="474.851" x2="451.267" y2="625.895" gradientUnits="userSpaceOnUse">
<stop stop-color="#FEFBF3" stop-opacity="0"/>
<stop offset="1" stop-color="#FEFBF3" stop-opacity="0.6"/>
</linearGradient>
<linearGradient id="paint8_linear_661_8747" x1="218.395" y1="325.049" x2="217.267" y2="476.092" gradientUnits="userSpaceOnUse">
<stop stop-color="#FEFBF3" stop-opacity="0"/>
<stop offset="1" stop-color="#FEFBF3" stop-opacity="0.6"/>
</linearGradient>
<linearGradient id="paint9_linear_661_8747" x1="218.394" y1="325.049" x2="217.266" y2="476.092" gradientUnits="userSpaceOnUse">
<stop stop-color="#FEFBF3" stop-opacity="0"/>
<stop offset="1" stop-color="#FEFBF3" stop-opacity="0.6"/>
</linearGradient>
<linearGradient id="paint10_linear_661_8747" x1="218.395" y1="325.049" x2="217.267" y2="476.092" gradientUnits="userSpaceOnUse">
<stop stop-color="#FEFBF3" stop-opacity="0"/>
<stop offset="1" stop-color="#FEFBF3" stop-opacity="0.6"/>
</linearGradient>
<linearGradient id="paint11_linear_661_8747" x1="452.395" y1="324.851" x2="451.267" y2="475.895" gradientUnits="userSpaceOnUse">
<stop stop-color="#FEFBF3" stop-opacity="0"/>
<stop offset="1" stop-color="#FEFBF3" stop-opacity="0.6"/>
</linearGradient>
<linearGradient id="paint12_linear_661_8747" x1="218.395" y1="175.049" x2="217.267" y2="326.092" gradientUnits="userSpaceOnUse">
<stop stop-color="#FEFBF3" stop-opacity="0"/>
<stop offset="1" stop-color="#FEFBF3" stop-opacity="0.6"/>
</linearGradient>
<linearGradient id="paint13_linear_661_8747" x1="218.394" y1="175.049" x2="217.266" y2="326.092" gradientUnits="userSpaceOnUse">
<stop stop-color="#FEFBF3" stop-opacity="0"/>
<stop offset="1" stop-color="#FEFBF3" stop-opacity="0.6"/>
</linearGradient>
<linearGradient id="paint14_linear_661_8747" x1="218.395" y1="175.049" x2="217.267" y2="326.092" gradientUnits="userSpaceOnUse">
<stop stop-color="#FEFBF3" stop-opacity="0"/>
<stop offset="1" stop-color="#FEFBF3" stop-opacity="0.6"/>
</linearGradient>
<linearGradient id="paint15_linear_661_8747" x1="452.395" y1="174.851" x2="451.267" y2="325.895" gradientUnits="userSpaceOnUse">
<stop stop-color="#FEFBF3" stop-opacity="0"/>
<stop offset="1" stop-color="#FEFBF3" stop-opacity="0.6"/>
</linearGradient>
<linearGradient id="paint16_linear_661_8747" x1="218.395" y1="25.0485" x2="217.267" y2="176.092" gradientUnits="userSpaceOnUse">
<stop stop-color="#FEFBF3" stop-opacity="0"/>
<stop offset="1" stop-color="#FEFBF3" stop-opacity="0.6"/>
</linearGradient>
<linearGradient id="paint17_linear_661_8747" x1="218.394" y1="25.0485" x2="217.266" y2="176.092" gradientUnits="userSpaceOnUse">
<stop stop-color="#FEFBF3" stop-opacity="0"/>
<stop offset="1" stop-color="#FEFBF3" stop-opacity="0.6"/>
</linearGradient>
<linearGradient id="paint18_linear_661_8747" x1="218.395" y1="25.0486" x2="217.267" y2="176.092" gradientUnits="userSpaceOnUse">
<stop stop-color="#FEFBF3" stop-opacity="0"/>
<stop offset="1" stop-color="#FEFBF3" stop-opacity="0.6"/>
</linearGradient>
<linearGradient id="paint19_linear_661_8747" x1="452.395" y1="24.8513" x2="451.267" y2="175.895" gradientUnits="userSpaceOnUse">
<stop stop-color="#FEFBF3" stop-opacity="0"/>
<stop offset="1" stop-color="#FEFBF3" stop-opacity="0.6"/>
</linearGradient>
<linearGradient id="paint20_linear_661_8747" x1="218.395" y1="-124.951" x2="217.267" y2="26.0922" gradientUnits="userSpaceOnUse">
<stop stop-color="#FEFBF3" stop-opacity="0"/>
<stop offset="1" stop-color="#FEFBF3" stop-opacity="0.6"/>
</linearGradient>
<linearGradient id="paint21_linear_661_8747" x1="218.394" y1="-124.951" x2="217.266" y2="26.0922" gradientUnits="userSpaceOnUse">
<stop stop-color="#FEFBF3" stop-opacity="0"/>
<stop offset="1" stop-color="#FEFBF3" stop-opacity="0.6"/>
</linearGradient>
<linearGradient id="paint22_linear_661_8747" x1="218.395" y1="-124.951" x2="217.267" y2="26.0922" gradientUnits="userSpaceOnUse">
<stop stop-color="#FEFBF3" stop-opacity="0"/>
<stop offset="1" stop-color="#FEFBF3" stop-opacity="0.6"/>
</linearGradient>
<linearGradient id="paint23_linear_661_8747" x1="452.395" y1="-125.149" x2="451.267" y2="25.895" gradientUnits="userSpaceOnUse">
<stop stop-color="#FEFBF3" stop-opacity="0"/>
<stop offset="1" stop-color="#FEFBF3" stop-opacity="0.6"/>
</linearGradient>
</defs>
</svg>
